<svg width="500" height="500" viewBox="0 0 500 500" fill="none" xmlns="http://www.w3.org/2000/svg">
<g clip-path="url(#clip0_1_34)">
<rect width="500" height="500" fill="none"/>
<path d="M295.289 198.455C278.984 198.473 265.187 185.176 268.258 169.153C272.832 145.293 283.736 122.929 300.151 104.312C317.136 85.0478 339.171 70.7603 363.849 62.7143C378.566 57.916 393.055 68.8764 395.629 84.2845V84.2845C398.285 100.187 387.033 114.602 372.694 121.609C362.535 126.574 353.434 133.443 345.963 141.917C338.922 149.903 333.571 159.037 330.089 168.827C324.545 184.417 311.858 198.437 295.289 198.455V198.455Z" fill="#8D7B68"/>
<path d="M267.953 44.4051C264.343 26.0619 279.943 10.3564 297.341 16.1827C331.938 27.7684 365.764 44.8846 395.474 66.0448C416.251 80.8422 434.337 97.1339 449.01 114.1C466.27 134.056 449.638 160.092 423.949 157.773V157.773C411.388 156.64 400.586 148.278 393.171 137.69C383.283 123.569 369.34 109.87 352.423 97.8219C333.062 84.0327 310.788 73.1057 288.173 66.1835C278.122 63.1071 270.023 54.9223 267.953 44.4051V44.4051Z" fill="#8D7B68"/>
<path d="M389.174 194.614C408.681 183.434 434.091 191.057 440.643 213.266C448.823 240.996 451.336 270.366 447.829 299.462C442.619 342.695 424.384 383.102 395.739 414.893C367.094 446.683 329.509 468.225 288.371 476.43C247.233 484.635 204.654 479.082 166.737 460.567C128.819 442.052 97.5098 411.526 77.2958 373.364C57.0818 335.202 49.0011 291.362 54.2117 248.129C59.4223 204.896 77.6568 164.488 106.302 132.698C125.581 111.302 148.909 94.5479 174.645 83.3782C195.254 74.434 217.124 89.9001 221.318 112.655V112.655C225.373 134.654 211.024 155.07 192.3 166.118C181.932 172.236 172.442 179.978 164.189 189.137C147.002 208.211 136.062 232.456 132.935 258.395C129.809 284.335 134.657 310.639 146.786 333.536C158.914 356.434 177.7 374.749 200.45 385.858C223.201 396.967 248.748 400.299 273.431 395.376C298.114 390.453 320.665 377.528 337.852 358.454C355.039 339.38 365.979 315.135 369.106 289.195C370.607 276.743 370.27 264.206 368.172 252.003C364.382 229.956 370.312 205.425 389.174 194.614V194.614Z" fill="#FCAEAE"/>
<path d="M407.954 293.618C429.931 296.394 446.131 317.228 439.328 338.612C433.678 356.373 425.713 373.314 415.608 388.943C398.139 415.961 374.77 438.294 347.414 454.118C320.057 469.942 289.489 478.806 258.207 479.985C226.926 481.165 195.821 474.627 167.435 460.906C139.048 447.185 114.186 426.67 94.8822 401.039C75.5781 375.408 62.3797 345.388 56.366 313.434C50.3523 281.481 51.6942 248.5 60.2819 217.189C65.2524 199.067 72.5686 181.801 81.9833 165.849C93.3057 146.664 119.04 146.115 135.246 161.793V161.793C151.123 177.153 151.529 202.376 142.735 222.437C140.275 228.05 138.214 233.863 136.577 239.832C131.425 258.618 130.62 278.406 134.228 297.579C137.836 316.751 145.755 334.763 157.338 350.141C168.92 365.52 183.837 377.829 200.869 386.062C217.901 394.294 236.564 398.217 255.333 397.509C274.101 396.801 292.442 391.483 308.857 381.989C325.271 372.495 339.291 359.094 349.773 342.884C353.104 337.731 356.048 332.342 358.586 326.764C367.654 306.839 386.437 290.9 407.954 293.618V293.618Z" fill="#FF8989"/>
<path d="M366.7 387.672C382.445 403.171 383.55 428.899 366.194 441.775C342.814 459.12 315.962 471.072 287.435 476.614C246.259 484.613 203.706 478.847 165.875 460.143C128.043 441.439 96.8751 410.757 76.8377 372.494C62.9553 345.985 54.9094 316.779 53.0756 286.969C51.7143 264.84 71.5962 249.484 93.0953 252.397V252.397C115.043 255.371 130.053 276.495 134.451 298.738C136.807 310.648 140.85 322.205 146.511 333.014C158.533 355.972 177.234 374.382 199.933 385.604C222.632 396.827 248.164 400.286 272.869 395.486C284.496 393.228 295.659 389.194 306.02 383.578C325.387 373.079 350.622 371.844 366.7 387.672V387.672Z" fill="#FF6666"/>
</g>
<defs>
<clipPath id="clip0_1_34">
<rect width="500" height="500" fill="white"/>
</clipPath>
</defs>
</svg>
